<svg xmlns="http://www.w3.org/2000/svg" viewBox="140 118 559 605" role="img"><path fill="#103b5e" fill-rule="evenodd" d="M495,699 498,704 497,706 492,705ZM451,698 456,697 458,701 453,703ZM420,698 425,697 427,701 425,703 421,703ZM374,697 381,698 384,703 383,707 378,711 374,710 370,705 370,702ZM295,697 300,697 304,702 303,708 299,711 296,711 291,707 291,701ZM578,695 578,712 589,712 586,710 582,711 580,709 582,704 588,704 588,702 582,703 580,698 589,696ZM561,695 561,697 567,698 567,712 569,712 569,698 574,697 574,695ZM543,695 543,712 545,712 546,700 553,711 557,712 557,695 555,695 554,707 548,698ZM528,695 527,712 538,712 538,710 529,710 530,704 537,705 537,702 531,703 529,698 538,696ZM508,695 507,712 509,712 510,699 518,712 521,712 521,695 519,696 518,707 511,696ZM496,695 493,697 487,712 489,712 492,708 498,708 501,712 503,712ZM466,695 466,712 468,700 473,712 475,712 480,700 481,712 483,712 483,695 479,696 474,707 469,695ZM450,695 449,712 451,712 451,706 453,704 458,712 461,712 457,705 461,701 460,697ZM434,695 433,712 445,712 436,710 437,704 444,704 437,703 436,698 444,697 444,695ZM427,696 418,695 418,712 420,712 421,705 429,702 429,698ZM391,695 391,712 393,712 394,700 400,710 405,712 405,695 403,695 402,708 395,697ZM361,695 361,712 363,712 363,695ZM348,695 342,700 342,707 346,712 352,713 357,710 355,709 349,711 345,708 344,702 348,697 353,697 355,699 356,697 353,695ZM325,695 324,708 327,712 332,713 337,708 337,696 335,696 335,708 332,711 329,711 326,708ZM312,695 311,712 321,712 313,709ZM292,696 288,703 289,708 296,713 302,712 306,707 306,700 300,695ZM271,695 276,710 279,712 286,695 283,696 278,708 274,697ZM257,695 257,712 268,712 259,710 260,704 267,704 266,702 261,703 259,698 268,696ZM380,691 378,691 368,701 369,709 376,713 383,711 386,706 385,699 377,694ZM340,600 344,590 350,584 358,580 371,580 378,583 384,590 387,600 385,602 342,602ZM628,598 631,591 639,583 652,579 665,583 672,591 674,601 629,602ZM165,598 168,591 176,583 190,579 199,581 208,589 211,601 166,602ZM525,570 525,647 540,647 540,570ZM645,568 631,573 618,586 613,599 613,618 620,634 633,645 646,649 660,649 676,643 686,633 675,625 671,630 663,635 646,636 638,632 632,626 628,618 628,614 688,613 689,598 684,584 675,574 660,568ZM467,568 453,569 447,572 439,581 437,580 437,570 423,570 424,647 438,647 438,604 442,591 451,583 459,581 467,582ZM353,569 338,577 328,591 325,602 325,615 328,626 335,637 348,646 359,649 372,649 389,643 398,634 389,625 381,632 373,636 359,636 352,633 344,625 340,614 400,613 402,611 402,601 399,589 393,579 380,570 372,568ZM151,622 157,634 167,643 184,649 200,649 215,646 229,640 256,619 267,646 284,647 315,570 298,571 276,630 253,570 236,570 250,604 238,616 222,627 207,634 191,637 175,632 167,623 165,617 166,613 226,612 226,598 221,584 212,574 197,568 182,568 172,571 157,583 150,599ZM530,532 524,536 523,546 528,551 537,551 542,546 542,538 539,534ZM483,524 483,647 498,647 498,524ZM593,522 579,528 574,534 571,542 570,569 555,570 555,582 570,583 570,647 585,647 585,583 603,582 603,570 585,569 585,548 588,540 592,536 607,535 608,523ZM673,473 641,426 433,439ZM613,393 578,342 575,342 304,444 613,395ZM556,312 513,249 508,244 224,465ZM427,128 418,138 166,492 484,213 485,210Z"/></svg>